<svg xmlns="http://www.w3.org/2000/svg" viewBox="0 0 120 120">
  <defs>
    <linearGradient id="b2skin" x1="0" y1="0" x2="0" y2="1">
      <stop offset="0%" stop-color="#d4a87a"/>
      <stop offset="100%" stop-color="#b08050"/>
    </linearGradient>
    <linearGradient id="b2vest" x1="0" y1="0" x2="0" y2="1">
      <stop offset="0%" stop-color="#1a2838"/>
      <stop offset="100%" stop-color="#0c1620"/>
    </linearGradient>
    <linearGradient id="b2beanie" x1="0" y1="0" x2="0" y2="1">
      <stop offset="0%" stop-color="#2a2a2a"/>
      <stop offset="100%" stop-color="#141414"/>
    </linearGradient>
    <radialGradient id="b2glow" cx="0.5" cy="0.5" r="0.5">
      <stop offset="0%" stop-color="#e53e3e" stop-opacity="0.35"/>
      <stop offset="100%" stop-color="#e53e3e" stop-opacity="0"/>
    </radialGradient>
  </defs>
  <rect width="120" height="120" rx="24" fill="#0e1a24"/>
  <ellipse cx="60" cy="56" rx="22" ry="5" fill="#000" opacity="0.12"/>
  <path d="M30 108c5-22 16-34 30-34s25 12 30 34z" fill="url(#b2vest)"/>
  <path d="M42 82h36" stroke="#263c50" stroke-width="0.8" opacity="0.4"/>
  <path d="M42 88h36" stroke="#263c50" stroke-width="0.8" opacity="0.4"/>
  <path d="M42 94h36" stroke="#263c50" stroke-width="0.8" opacity="0.4"/>
  <path d="M48 78v30" stroke="#4fd1c5" stroke-width="0.8" opacity="0.3"/>
  <path d="M60 76v32" stroke="#4fd1c5" stroke-width="0.8" opacity="0.3"/>
  <path d="M72 78v30" stroke="#4fd1c5" stroke-width="0.8" opacity="0.3"/>
  <path d="M53 88l7-5 7 5" stroke="#e53e3e" stroke-width="2.5" fill="none" stroke-linecap="round"/>
  <path d="M55 93l5-3.5 5 3.5" stroke="#e53e3e" stroke-width="1.8" fill="none" stroke-linecap="round"/>
  <ellipse cx="60" cy="52" rx="22" ry="24" fill="url(#b2skin)"/>
  <ellipse cx="52" cy="56" rx="3" ry="2" fill="#b08050" opacity="0.3"/>
  <ellipse cx="68" cy="56" rx="3" ry="2" fill="#b08050" opacity="0.3"/>
  <path d="M36 40c2-14 10-22 24-22s22 8 24 22" fill="url(#b2beanie)"/>
  <rect x="36" y="38" width="48" height="5" rx="2.5" fill="#1a1a1a"/>
  <rect x="36" y="38" width="48" height="5" rx="2.5" fill="#e53e3e" opacity="0.15"/>
  <rect x="38" y="42" width="44" height="14" rx="7" fill="#0a1118" stroke="#e53e3e" stroke-width="1.5"/>
  <circle cx="50" cy="49" r="6" fill="#1a0808" stroke="#e53e3e" stroke-width="1.2"/>
  <circle cx="50" cy="49" r="2.5" fill="#e53e3e" opacity="0.2"/>
  <circle cx="70" cy="49" r="6" fill="#1a0808" stroke="#e53e3e" stroke-width="1.2"/>
  <circle cx="70" cy="49" r="2.5" fill="#e53e3e" opacity="0.2"/>
  <circle cx="50" cy="49" r="6" fill="url(#b2glow)"/>
  <circle cx="70" cy="49" r="6" fill="url(#b2glow)"/>
  <line x1="72" y1="56" x2="79" y2="64" stroke="#c09060" stroke-width="1.8" stroke-linecap="round" opacity="0.7"/>
  <line x1="73" y1="57" x2="80" y2="65" stroke="#b08050" stroke-width="0.8" stroke-linecap="round" opacity="0.4"/>
  <path d="M46 66c0 3 6 8 14 8s14-5 14-8" fill="#a07050" opacity="0.3"/>
  <path d="M48 66c0 2 5 6 12 6s12-4 12-6" fill="#0a1118" opacity="0.6"/>
  <ellipse cx="60" cy="60" rx="2.5" ry="1.5" fill="#b08050" opacity="0.4"/>
  <line x1="52" y1="62" x2="68" y2="62" stroke="#a07050" stroke-width="2" stroke-linecap="round"/>
</svg>
