<svg xmlns="http://www.w3.org/2000/svg" viewBox="0 0 120 120">
  <rect width="120" height="120" rx="24" fill="#0e1a24"/>
  <!-- Face -->
  <circle cx="60" cy="46" r="24" fill="#c68b5e"/>
  <!-- Hair (buzz cut) -->
  <path d="M36 40c1-17 12-28 24-28s23 11 24 28c-3 3-10 5-24 5s-21-2-24-5z" fill="#1a1a1a"/>
  <!-- Tactical goggles -->
  <rect x="38" y="38" width="44" height="14" rx="7" fill="#0a1118" stroke="#e53e3e" stroke-width="1.5"/>
  <circle cx="50" cy="45" r="5" fill="#1a0808" stroke="#e53e3e" stroke-width="1"/>
  <circle cx="70" cy="45" r="5" fill="#1a0808" stroke="#e53e3e" stroke-width="1"/>
  <!-- Scar -->
  <line x1="72" y1="52" x2="78" y2="60" stroke="#a07050" stroke-width="1.5" stroke-linecap="round"/>
  <!-- Mouth -->
  <line x1="52" y1="58" x2="68" y2="58" stroke="#8b6b4a" stroke-width="2" stroke-linecap="round"/>
  <!-- Body (armored vest) -->
  <path d="M28 108c4-21 16-32 32-32s28 11 32 32z" fill="#111d2b"/>
  <path d="M48 80v24" stroke="#4fd1c5" stroke-width="1" opacity="0.4"/>
  <path d="M60 78v26" stroke="#4fd1c5" stroke-width="1" opacity="0.4"/>
  <path d="M72 80v24" stroke="#4fd1c5" stroke-width="1" opacity="0.4"/>
  <!-- Rank insignia -->
  <path d="M54 86l6-4 6 4" stroke="#e53e3e" stroke-width="2" fill="none" stroke-linecap="round"/>
</svg>
