<svg xmlns="http://www.w3.org/2000/svg" viewBox="0 0 120 120">
  <rect width="120" height="120" rx="24" fill="#0e1a24"/>
  <!-- Face -->
  <circle cx="60" cy="46" r="24" fill="#d4a574"/>
  <!-- Hair (short, tactical) -->
  <path d="M36 38c2-16 12-26 24-26s22 10 24 26c-4 4-10 7-24 7s-20-3-24-7z" fill="#2a1f14"/>
  <!-- Sunglasses -->
  <rect x="40" y="40" width="17" height="11" rx="3" fill="#0a1118" stroke="#4fd1c5" stroke-width="1.5"/>
  <rect x="63" y="40" width="17" height="11" rx="3" fill="#0a1118" stroke="#4fd1c5" stroke-width="1.5"/>
  <line x1="57" y1="46" x2="63" y2="46" stroke="#4fd1c5" stroke-width="1.5"/>
  <!-- Earpiece -->
  <rect x="30" y="42" width="6" height="14" rx="3" fill="#1a2a3a" stroke="#4fd1c5" stroke-width="1"/>
  <!-- Mouth -->
  <path d="M52 59c3 3 13 3 16 0" stroke="#8b6b4a" stroke-width="2.5" fill="none" stroke-linecap="round"/>
  <!-- Body (tactical suit) -->
  <path d="M28 108c4-21 16-32 32-32s28 11 32 32z" fill="#1a2a3a" stroke="#4fd1c5" stroke-width="1"/>
  <!-- Badge -->
  <circle cx="56" cy="88" r="5" fill="#e53e3e" stroke="#ff6b6b" stroke-width="1"/>
</svg>
