<svg xmlns="http://www.w3.org/2000/svg" viewBox="0 0 120 120">
  <defs>
    <linearGradient id="b1skin" x1="0" y1="0" x2="0" y2="1">
      <stop offset="0%" stop-color="#e0b896"/>
      <stop offset="100%" stop-color="#c49a6c"/>
    </linearGradient>
    <linearGradient id="b1suit" x1="0" y1="0" x2="0" y2="1">
      <stop offset="0%" stop-color="#1e3044"/>
      <stop offset="100%" stop-color="#0f1c28"/>
    </linearGradient>
    <linearGradient id="b1hair" x1="0" y1="0" x2="0" y2="1">
      <stop offset="0%" stop-color="#3a2a18"/>
      <stop offset="100%" stop-color="#1e1408"/>
    </linearGradient>
    <radialGradient id="b1glow" cx="0.5" cy="0.5" r="0.5">
      <stop offset="0%" stop-color="#4fd1c5" stop-opacity="0.4"/>
      <stop offset="100%" stop-color="#4fd1c5" stop-opacity="0"/>
    </radialGradient>
  </defs>
  <rect width="120" height="120" rx="24" fill="#0e1a24"/>
  <ellipse cx="60" cy="56" rx="22" ry="6" fill="#000" opacity="0.15"/>
  <path d="M30 108c5-22 16-34 30-34s25 12 30 34z" fill="url(#b1suit)"/>
  <path d="M48 78l12 8 12-8" stroke="#4fd1c5" stroke-width="1.2" fill="none" opacity="0.6"/>
  <line x1="60" y1="86" x2="60" y2="108" stroke="#263c50" stroke-width="1"/>
  <circle cx="52" cy="92" r="5" fill="#e53e3e" opacity="0.85"/>
  <circle cx="52" cy="92" r="2.5" fill="#ff8080" opacity="0.5"/>
  <path d="M37 48c0-16 10-28 23-28s23 12 23 28" fill="none"/>
  <ellipse cx="60" cy="50" rx="22" ry="24" fill="url(#b1skin)"/>
  <ellipse cx="60" cy="50" rx="20" ry="22" fill="url(#b1skin)"/>
  <ellipse cx="52" cy="54" rx="3" ry="2" fill="#c49060" opacity="0.3"/>
  <ellipse cx="68" cy="54" rx="3" ry="2" fill="#c49060" opacity="0.3"/>
  <path d="M38 44c2-18 10-26 22-26s20 8 22 26c-4 4-10 6-22 6s-18-2-22-6z" fill="url(#b1hair)"/>
  <path d="M40 44c1-2 3-3 5-3" stroke="#4a3820" stroke-width="0.8" fill="none" opacity="0.4"/>
  <path d="M75 44c-1-2-3-3-5-3" stroke="#4a3820" stroke-width="0.8" fill="none" opacity="0.4"/>
  <path d="M40 46c0-4 4-8 10-8h5c3 0 5 4 5 8s-2 8-5 8h-5c-6 0-10-4-10-8z" fill="#0a1118" stroke="#4fd1c5" stroke-width="1.5"/>
  <path d="M60 46c0-4 4-8 10-8h5c3 0 5 4 5 8s-2 8-5 8h-5c-6 0-10-4-10-8z" fill="#0a1118" stroke="#4fd1c5" stroke-width="1.5"/>
  <line x1="55" y1="46" x2="60" y2="46" stroke="#4fd1c5" stroke-width="1.5"/>
  <rect x="43" y="44" width="5" height="2" rx="1" fill="#4fd1c5" opacity="0.15"/>
  <rect x="63" y="44" width="5" height="2" rx="1" fill="#4fd1c5" opacity="0.15"/>
  <ellipse cx="60" cy="60" rx="2" ry="1.5" fill="#c49060" opacity="0.5"/>
  <path d="M53 63c3 3 11 3 14 0" stroke="#a07050" stroke-width="2" fill="none" stroke-linecap="round"/>
  <rect x="31" y="44" width="7" height="14" rx="3.5" fill="#1a2a3a"/>
  <rect x="32" y="46" width="5" height="4" rx="2" fill="#4fd1c5" opacity="0.5"/>
  <circle cx="34" cy="53" r="1.5" fill="#4fd1c5" opacity="0.6"/>
  <circle cx="34" cy="53" r="3" fill="url(#b1glow)"/>
</svg>
