<svg xmlns="http://www.w3.org/2000/svg" viewBox="0 0 120 120">
  <rect width="120" height="120" rx="24" fill="#0e1a24"/>
  <!-- Face -->
  <circle cx="60" cy="46" r="24" fill="#8b6b4a"/>
  <!-- Balaclava/Mask -->
  <path d="M36 46c0-14 10-30 24-30s24 16 24 30c0 8-6 18-24 18s-24-10-24-18z" fill="#1a1a1a"/>
  <!-- Eye slit -->
  <rect x="40" y="40" width="40" height="12" rx="6" fill="#0e1a24"/>
  <!-- Eyes -->
  <circle cx="50" cy="46" r="3" fill="#e8c8a0"/>
  <circle cx="50" cy="46" r="1.5" fill="#2a1f14"/>
  <circle cx="70" cy="46" r="3" fill="#e8c8a0"/>
  <circle cx="70" cy="46" r="1.5" fill="#2a1f14"/>
  <!-- Body (stealth suit) -->
  <path d="M28 108c4-21 16-32 32-32s28 11 32 32z" fill="#111111"/>
  <!-- Utility belt -->
  <rect x="38" y="90" width="44" height="6" rx="3" fill="#1a2a3a" stroke="#4fd1c5" stroke-width="1"/>
  <!-- Belt buckle -->
  <rect x="55" y="89" width="10" height="8" rx="2" fill="#e53e3e"/>
  <!-- Crosshair on chest -->
  <circle cx="60" cy="82" r="4" stroke="#4fd1c5" stroke-width="1" fill="none" opacity="0.5"/>
  <line x1="60" y1="76" x2="60" y2="88" stroke="#4fd1c5" stroke-width="0.5" opacity="0.4"/>
  <line x1="54" y1="82" x2="66" y2="82" stroke="#4fd1c5" stroke-width="0.5" opacity="0.4"/>
</svg>
