<svg xmlns="http://www.w3.org/2000/svg" viewBox="0 0 120 120">
  <defs>
    <linearGradient id="g4skin" x1="0" y1="0" x2="0" y2="1">
      <stop offset="0%" stop-color="#d4a070"/>
      <stop offset="100%" stop-color="#b88050"/>
    </linearGradient>
    <linearGradient id="g4hijab" x1="0" y1="0" x2="0" y2="1">
      <stop offset="0%" stop-color="#243848"/>
      <stop offset="100%" stop-color="#162430"/>
    </linearGradient>
    <linearGradient id="g4body" x1="0" y1="0" x2="0" y2="1">
      <stop offset="0%" stop-color="#1e3040"/>
      <stop offset="100%" stop-color="#0e1820"/>
    </linearGradient>
    <radialGradient id="g4pin" cx="0.4" cy="0.3" r="0.6">
      <stop offset="0%" stop-color="#ff8080"/>
      <stop offset="100%" stop-color="#cc2020"/>
    </radialGradient>
    <radialGradient id="g4lensglow" cx="0.5" cy="0.5" r="0.5">
      <stop offset="0%" stop-color="#4fd1c5" stop-opacity="0.3"/>
      <stop offset="100%" stop-color="#4fd1c5" stop-opacity="0"/>
    </radialGradient>
  </defs>
  <rect width="120" height="120" rx="24" fill="#0e1a24"/>
  <ellipse cx="60" cy="58" rx="22" ry="5" fill="#000" opacity="0.1"/>
  <path d="M30 108c5-20 16-30 30-30s25 10 30 30z" fill="url(#g4body)"/>
  <line x1="60" y1="80" x2="60" y2="108" stroke="#4fd1c5" stroke-width="0.8" opacity="0.2"/>
  <circle cx="60" cy="90" r="3" stroke="#4fd1c5" stroke-width="0.8" fill="none" opacity="0.35"/>
  <path d="M32 52c0-20 12-36 28-36s28 16 28 36c0 12-4 20-10 24v12c-4 4-12 6-18 6s-14-2-18-6V76c-6-4-10-12-10-24z" fill="url(#g4hijab)"/>
  <path d="M34 52c0-18 12-32 26-32s26 14 26 32" fill="url(#g4hijab)"/>
  <path d="M34 52c1 3 2 5 4 7" stroke="#2e4858" stroke-width="0.8" opacity="0.4"/>
  <path d="M86 52c-1 3-2 5-4 7" stroke="#2e4858" stroke-width="0.8" opacity="0.4"/>
  <path d="M42 34c6-6 12-10 18-10s12 4 18 10" stroke="#4fd1c5" stroke-width="0.8" fill="none" opacity="0.25"/>
  <circle cx="40" cy="58" r="4.5" fill="url(#g4pin)"/>
  <circle cx="39" cy="57" r="1.5" fill="#fff" opacity="0.25"/>
  <circle cx="40" cy="58" r="2" fill="#ff6b6b" opacity="0.4"/>
  <circle cx="60" cy="50" r="20" fill="url(#g4skin)"/>
  <ellipse cx="54" cy="55" rx="2.5" ry="1.5" fill="#b88050" opacity="0.2"/>
  <ellipse cx="66" cy="55" rx="2.5" ry="1.5" fill="#b88050" opacity="0.2"/>
  <rect x="42" y="44" width="14" height="10" rx="3" fill="rgba(79,209,197,0.12)" stroke="#4fd1c5" stroke-width="1.2"/>
  <rect x="64" y="44" width="14" height="10" rx="3" fill="rgba(79,209,197,0.12)" stroke="#4fd1c5" stroke-width="1.2"/>
  <line x1="56" y1="49" x2="64" y2="49" stroke="#4fd1c5" stroke-width="1"/>
  <circle cx="74" cy="47" r="1.5" fill="#e53e3e" opacity="0.8"/>
  <circle cx="74" cy="47" r="3" fill="url(#g4lensglow)"/>
  <ellipse cx="49" cy="49" rx="3.5" ry="3" fill="#fff" opacity="0.8"/>
  <circle cx="49" cy="49" r="2" fill="#4a3520"/>
  <circle cx="49" cy="49" r="1" fill="#1e1208"/>
  <circle cx="50" cy="48" r="0.7" fill="#fff" opacity="0.5"/>
  <ellipse cx="71" cy="49" rx="3.5" ry="3" fill="#fff" opacity="0.8"/>
  <circle cx="71" cy="49" r="2" fill="#4a3520"/>
  <circle cx="71" cy="49" r="1" fill="#1e1208"/>
  <circle cx="72" cy="48" r="0.7" fill="#fff" opacity="0.5"/>
  <path d="M44 42l6-2" stroke="#2a1a0c" stroke-width="1.8" stroke-linecap="round"/>
  <path d="M76 42l-6-2" stroke="#2a1a0c" stroke-width="1.8" stroke-linecap="round"/>
  <ellipse cx="60" cy="58" rx="2" ry="1.5" fill="#b88050" opacity="0.35"/>
  <path d="M54 60c2 2 10 2 12 0" stroke="#a07050" stroke-width="2" fill="none" stroke-linecap="round"/>
</svg>
