<svg xmlns="http://www.w3.org/2000/svg" viewBox="0 0 120 120">
  <rect width="120" height="120" rx="24" fill="#0e1a24"/>
  <!-- Face -->
  <circle cx="60" cy="46" r="24" fill="#ffd7b5"/>
  <!-- Hair (side sweep, long) -->
  <path d="M36 38c2-16 12-26 24-26s22 10 24 26c-4 8-14 14-28 14s-18-4-20-14z" fill="#c8a050"/>
  <path d="M82 38c2 8 4 24 0 40" stroke="#c8a050" stroke-width="8" stroke-linecap="round"/>
  <path d="M38 38c-2 8-4 24 0 40" stroke="#c8a050" stroke-width="6" stroke-linecap="round"/>
  <!-- Smart glasses (tech) -->
  <rect x="40" y="40" width="16" height="10" rx="2" fill="rgba(79,209,197,0.15)" stroke="#4fd1c5" stroke-width="1.5"/>
  <rect x="64" y="40" width="16" height="10" rx="2" fill="rgba(79,209,197,0.15)" stroke="#4fd1c5" stroke-width="1.5"/>
  <line x1="56" y1="45" x2="64" y2="45" stroke="#4fd1c5" stroke-width="1"/>
  <!-- HUD dot on lens -->
  <circle cx="72" cy="44" r="1.5" fill="#e53e3e"/>
  <!-- Eyes behind glasses -->
  <circle cx="48" cy="45" r="2" fill="#1e1e1e"/>
  <circle cx="72" cy="45" r="2" fill="#1e1e1e"/>
  <!-- Mouth -->
  <path d="M54 58c2 2 10 2 12 0" stroke="#c07060" stroke-width="2" fill="none" stroke-linecap="round"/>
  <!-- Body (analyst jacket) -->
  <path d="M28 108c4-21 16-32 32-32s28 11 32 32z" fill="#1a2a3a"/>
  <!-- Collar -->
  <path d="M48 76l12 6 12-6" stroke="#4fd1c5" stroke-width="1" fill="none" opacity="0.5"/>
  <!-- ID lanyard -->
  <line x1="60" y1="72" x2="60" y2="94" stroke="#e53e3e" stroke-width="1.5"/>
  <rect x="52" y="94" width="16" height="10" rx="2" fill="#fff" opacity="0.9"/>
  <rect x="54" y="96" width="12" height="3" rx="1" fill="#e53e3e" opacity="0.6"/>
</svg>
