<svg xmlns="http://www.w3.org/2000/svg" viewBox="0 0 120 120">
  <rect width="120" height="120" rx="24" fill="#0e1a24"/>
  <!-- Face -->
  <circle cx="60" cy="46" r="24" fill="#e8c8a0"/>
  <!-- Hair (ponytail) -->
  <path d="M36 38c2-16 12-26 24-26s22 10 24 26c-4 6-12 10-24 10s-20-4-24-10z" fill="#1a0a05"/>
  <path d="M84 38c2 6 4 20 2 32" stroke="#1a0a05" stroke-width="6" stroke-linecap="round"/>
  <!-- Cat-eye sunglasses -->
  <path d="M38 42c0-3 4-7 10-7h4c3 0 6 4 6 7s-3 7-6 7h-4c-6 0-10-4-10-7z" fill="#0a1118" stroke="#e53e3e" stroke-width="1"/>
  <path d="M62 42c0-3 4-7 10-7h4c3 0 6 4 6 7s-3 7-6 7h-4c-6 0-10-4-10-7z" fill="#0a1118" stroke="#e53e3e" stroke-width="1"/>
  <line x1="56" y1="43" x2="62" y2="43" stroke="#e53e3e" stroke-width="1"/>
  <!-- Lips -->
  <path d="M52 58c3 4 13 4 16 0" stroke="#c45050" stroke-width="2" fill="none" stroke-linecap="round"/>
  <!-- Body (spy catsuit) -->
  <path d="M28 108c4-21 16-32 32-32s28 11 32 32z" fill="#111111"/>
  <!-- Necklace/Pendant -->
  <path d="M48 72c4 6 20 6 24 0" stroke="#4fd1c5" stroke-width="1" fill="none"/>
  <circle cx="60" cy="78" r="3" fill="#e53e3e"/>
</svg>
