<svg xmlns="http://www.w3.org/2000/svg" viewBox="0 0 120 120">
  <rect width="120" height="120" rx="24" fill="#0e1a24"/>
  <!-- Face -->
  <circle cx="60" cy="46" r="24" fill="#d4a574"/>
  <!-- Hair (bob cut with bangs) -->
  <path d="M36 44c0-18 10-30 24-30s24 12 24 30c0 4-2 8-6 10v-10c0-12-8-22-18-22s-18 10-18 22v10c-4-2-6-6-6-10z" fill="#2a1510"/>
  <rect x="40" y="32" width="40" height="8" rx="4" fill="#2a1510"/>
  <!-- Eyes with liner -->
  <ellipse cx="50" cy="46" rx="3.5" ry="3" fill="#1e1e1e"/>
  <ellipse cx="70" cy="46" rx="3.5" ry="3" fill="#1e1e1e"/>
  <path d="M44 44l2-2" stroke="#4fd1c5" stroke-width="1" stroke-linecap="round"/>
  <path d="M76 44l-2-2" stroke="#4fd1c5" stroke-width="1" stroke-linecap="round"/>
  <!-- Comm earring -->
  <circle cx="34" cy="48" r="3" fill="#4fd1c5" opacity="0.7"/>
  <!-- Lips -->
  <path d="M54 58c2 3 10 3 12 0" stroke="#c45050" stroke-width="2" fill="none" stroke-linecap="round"/>
  <!-- Body (tech jacket) -->
  <path d="M28 108c4-21 16-32 32-32s28 11 32 32z" fill="#1a2a3a"/>
  <!-- Collar details -->
  <path d="M44 76l16 8 16-8" stroke="#4fd1c5" stroke-width="1" fill="none" opacity="0.5"/>
  <!-- Badge -->
  <rect x="52" y="86" width="16" height="8" rx="2" fill="#e53e3e" opacity="0.8"/>
</svg>
