<svg xmlns="http://www.w3.org/2000/svg" viewBox="0 0 120 120">
  <defs>
    <linearGradient id="g1skin" x1="0" y1="0" x2="0" y2="1">
      <stop offset="0%" stop-color="#f0d8b8"/>
      <stop offset="100%" stop-color="#d4b890"/>
    </linearGradient>
    <linearGradient id="g1suit" x1="0" y1="0" x2="0" y2="1">
      <stop offset="0%" stop-color="#161616"/>
      <stop offset="100%" stop-color="#080808"/>
    </linearGradient>
    <linearGradient id="g1hair" x1="0" y1="0" x2="0" y2="1">
      <stop offset="0%" stop-color="#241008"/>
      <stop offset="100%" stop-color="#120604"/>
    </linearGradient>
    <radialGradient id="g1pendant" cx="0.5" cy="0.3" r="0.6">
      <stop offset="0%" stop-color="#ff6b6b"/>
      <stop offset="100%" stop-color="#cc2020"/>
    </radialGradient>
  </defs>
  <rect width="120" height="120" rx="24" fill="#0e1a24"/>
  <ellipse cx="60" cy="58" rx="22" ry="5" fill="#000" opacity="0.12"/>
  <path d="M30 108c5-22 16-34 30-34s25 12 30 34z" fill="url(#g1suit)"/>
  <path d="M48 74c4 6 20 6 24 0" stroke="#4fd1c5" stroke-width="1" fill="none" opacity="0.5"/>
  <circle cx="60" cy="80" r="3.5" fill="url(#g1pendant)"/>
  <circle cx="59" cy="79" r="1" fill="#fff" opacity="0.3"/>
  <line x1="60" y1="76" x2="60" y2="74" stroke="#4fd1c5" stroke-width="0.8" opacity="0.5"/>
  <ellipse cx="60" cy="50" rx="22" ry="24" fill="url(#g1skin)"/>
  <ellipse cx="53" cy="55" rx="3" ry="1.5" fill="#d4b080" opacity="0.2"/>
  <ellipse cx="67" cy="55" rx="3" ry="1.5" fill="#d4b080" opacity="0.2"/>
  <path d="M38 40c2-18 10-28 22-28s20 10 22 28c-4 6-12 10-22 10s-18-4-22-10z" fill="url(#g1hair)"/>
  <path d="M80 40c2 8 4 22 2 36" stroke="url(#g1hair)" stroke-width="7" stroke-linecap="round"/>
  <path d="M80 40c2 8 4 22 2 36" stroke="#1a0a05" stroke-width="7" stroke-linecap="round"/>
  <path d="M81 42c1 6 3 18 1 30" stroke="#2a1510" stroke-width="2" stroke-linecap="round" opacity="0.3"/>
  <circle cx="82" cy="76" r="4" fill="#1a0a05"/>
  <path d="M38 44c0-5 4-10 10-10h6c4 0 7 5 7 10s-3 10-7 10h-6c-6 0-10-5-10-10z" fill="#0a1118" stroke="#e53e3e" stroke-width="1.2"/>
  <path d="M35 40l5 2" stroke="#e53e3e" stroke-width="1.2" stroke-linecap="round"/>
  <path d="M61 44c0-5 4-10 10-10h6c4 0 7 5 7 10s-3 10-7 10h-6c-6 0-10-5-10-10z" fill="#0a1118" stroke="#e53e3e" stroke-width="1.2"/>
  <path d="M85 40l-5 2" stroke="#e53e3e" stroke-width="1.2" stroke-linecap="round"/>
  <line x1="55" y1="44" x2="61" y2="44" stroke="#e53e3e" stroke-width="1.2"/>
  <rect x="42" y="42" width="4" height="2" rx="1" fill="#e53e3e" opacity="0.15"/>
  <rect x="65" y="42" width="4" height="2" rx="1" fill="#e53e3e" opacity="0.15"/>
  <ellipse cx="60" cy="58" rx="2.5" ry="1.5" fill="#d4b080" opacity="0.4"/>
  <path d="M53 62c3 3 11 3 14 0" stroke="#c06060" stroke-width="2" fill="none" stroke-linecap="round"/>
  <path d="M54 63c2 1 8 1 10 0" stroke="#d47070" stroke-width="1" fill="none" stroke-linecap="round" opacity="0.4"/>
  <path d="M44 36l-2-2" stroke="#e53e3e" stroke-width="1" opacity="0.3"/>
  <path d="M76 36l2-2" stroke="#e53e3e" stroke-width="1" opacity="0.3"/>
</svg>
